<svg width="35" height="35" viewBox="0 0 35 35" fill="none" xmlns="http://www.w3.org/2000/svg">
<path d="M4.375 7.29167V27.7083C4.375 29.3125 5.67292 30.625 7.29167 30.625H27.7083C29.3125 30.625 30.625 29.3125 30.625 27.7083V7.29167C30.625 5.6875 29.3125 4.375 27.7083 4.375H7.29167C5.67292 4.375 4.375 5.6875 4.375 7.29167ZM21.875 13.125C21.875 15.5458 19.9208 17.5 17.5 17.5C15.0792 17.5 13.125 15.5458 13.125 13.125C13.125 10.7042 15.0792 8.75 17.5 8.75C19.9208 8.75 21.875 10.7042 21.875 13.125ZM8.75 24.7917C8.75 21.875 14.5833 20.2708 17.5 20.2708C20.4167 20.2708 26.25 21.875 26.25 24.7917V26.25H8.75V24.7917Z" fill="#2962EF"/>
</svg>
