<svg width="20" height="20" viewBox="0 0 20 20" fill="none" xmlns="http://www.w3.org/2000/svg">
<path d="M20 4.42383C19.2477 4.75196 18.452 4.97003 17.6375 5.07133C18.4958 4.56211 19.1376 3.75578 19.4412 2.80508C18.6375 3.28175 17.7582 3.61742 16.8412 3.79758C16.2791 3.1973 15.5493 2.77998 14.7469 2.59982C13.9444 2.41967 13.1063 2.48501 12.3415 2.78736C11.5766 3.08971 10.9204 3.61509 10.458 4.29525C9.99566 4.97541 9.74853 5.7789 9.74875 6.60133C9.74875 6.92633 9.77625 7.23883 9.84375 7.53633C8.2126 7.45636 6.6167 7.03301 5.16038 6.29398C3.70406 5.55494 2.42012 4.51685 1.3925 3.24758C0.866024 4.1499 0.703261 5.21897 0.937354 6.23708C1.17145 7.2552 1.78479 8.14582 2.6525 8.72758C2.00345 8.71017 1.36809 8.53697 0.8 8.22258V8.26758C0.801087 9.21437 1.12833 10.1319 1.72665 10.8657C2.32496 11.5994 3.15781 12.1047 4.085 12.2963C3.73423 12.3888 3.37273 12.4342 3.01 12.4313C2.74949 12.436 2.48923 12.4125 2.23375 12.3613C2.49868 13.1751 3.00936 13.8868 3.69549 14.3983C4.38162 14.9098 5.20945 15.196 6.065 15.2176C4.61367 16.3526 2.82372 16.9684 0.98125 16.9663C0.645 16.9663 0.3225 16.9513 0 16.9101C1.87485 18.1183 4.05959 18.7574 6.29 18.7501C13.835 18.7501 17.96 12.5001 17.96 7.08258C17.96 6.90133 17.9538 6.72633 17.945 6.55258C18.7537 5.97381 19.4501 5.25243 20 4.42383Z" fill="white"/>
</svg>
