<svg width="50" height="50" viewBox="0 0 50 50" fill="none" xmlns="http://www.w3.org/2000/svg">
<circle cx="25" cy="25" r="25" fill="#5E5C6C"/>
<g clip-path="url(#clip0_2_148)">
<path d="M29.3009 24.767C27.0572 23.6509 24.9089 22.6248 22.7129 21.5535V27.9624C25.0237 26.7931 27.4595 25.7222 29.3104 24.767H29.3009Z" fill="white"/>
<path d="M29.3009 24.767C27.0572 23.6509 22.7129 21.5535 22.7129 21.5535L28.505 25.1774C28.5055 25.1774 27.4499 25.7222 29.3009 24.767Z" fill="#E8E0E0"/>
<path d="M23.1347 32.9793C18.4743 32.8994 16.8826 32.8275 15.9042 32.6399C15.2423 32.5152 14.6671 32.2384 14.2453 31.8369C13.9194 31.5331 13.6601 31.0695 13.459 30.4262C13.2865 29.8904 13.2193 29.4445 13.1235 28.3554C12.9769 25.8975 12.9419 23.8879 13.1235 21.6426C13.2733 20.4026 13.346 18.9306 14.3411 18.0719C14.811 17.67 15.3576 17.4113 15.9714 17.3044C16.9303 17.1349 21.0154 17.001 25.2444 17.001C29.4639 17.001 33.558 17.1349 34.5178 17.3044C35.2846 17.4384 36.0037 17.8399 36.426 18.3576C37.334 19.6871 37.3499 21.3404 37.442 22.6336C37.4802 23.2498 37.4802 26.7486 37.442 27.3648C37.2986 29.4086 37.1832 30.1317 36.8573 30.8814C36.6557 31.3547 36.4836 31.6045 36.1858 31.8813C35.7187 32.3073 35.1232 32.5906 34.4788 32.6936C30.4459 32.9759 27.0213 33.0372 23.1347 32.9793ZM29.3104 24.767C27.0667 23.6509 24.9184 22.6159 22.7224 21.5445V27.9539C25.0333 26.7846 27.4694 25.7132 29.32 24.7581L29.3104 24.767Z" fill="#CD201F"/>
</g>
<defs>
<clipPath id="clip0_2_148">
<rect width="24.4706" height="16" fill="white" transform="translate(13 17)"/>
</clipPath>
</defs>
</svg>
