<svg width="35" height="35" viewBox="0 0 35 35" fill="none" xmlns="http://www.w3.org/2000/svg">
<path d="M20.4173 2.91675H8.75065C7.14648 2.91675 5.84857 4.22925 5.84857 5.83342L5.83398 29.1668C5.83398 30.7709 7.1319 32.0834 8.73607 32.0834H26.2506C27.8548 32.0834 29.1673 30.7709 29.1673 29.1668V11.6667L20.4173 2.91675ZM21.8756 17.5001H16.0423V18.9584H20.4173C21.2194 18.9584 21.8756 19.6147 21.8756 20.4167V24.7917C21.8756 25.5938 21.2194 26.2501 20.4173 26.2501H18.959V27.7084H16.0423V26.2501H13.1256V23.3334H18.959V21.8751H14.584C13.7819 21.8751 13.1256 21.2188 13.1256 20.4167V16.0417C13.1256 15.2397 13.7819 14.5834 14.584 14.5834H16.0423V13.1251H18.959V14.5834H21.8756V17.5001ZM18.959 11.6667V5.10425L25.5215 11.6667H18.959Z" fill="#EFB657"/>
</svg>
