<svg width="35" height="35" viewBox="0 0 35 35" fill="none" xmlns="http://www.w3.org/2000/svg">
<path fill-rule="evenodd" clip-rule="evenodd" d="M24.3105 19.1479C26.3085 20.5042 27.7085 22.3417 27.7085 24.7917V29.1667H33.5418V24.7917C33.5418 21.6125 28.3355 19.7313 24.3105 19.1479Z" fill="#6E4ABC"/>
<path d="M13.1263 17.4999C16.348 17.4999 18.9596 14.8882 18.9596 11.6666C18.9596 8.44492 16.348 5.83325 13.1263 5.83325C9.90464 5.83325 7.29297 8.44492 7.29297 11.6666C7.29297 14.8882 9.90464 17.4999 13.1263 17.4999Z" fill="#6E4ABC"/>
<path fill-rule="evenodd" clip-rule="evenodd" d="M21.8751 17.4999C25.098 17.4999 27.7085 14.8895 27.7085 11.6666C27.7085 8.44367 25.098 5.83325 21.8751 5.83325C21.1897 5.83325 20.548 5.97908 19.9355 6.18325C21.146 7.68533 21.8751 9.59575 21.8751 11.6666C21.8751 13.7374 21.146 15.6478 19.9355 17.1499C20.548 17.3541 21.1897 17.4999 21.8751 17.4999Z" fill="#6E4ABC"/>
<path fill-rule="evenodd" clip-rule="evenodd" d="M13.1257 18.9583C9.2319 18.9583 1.45898 20.9124 1.45898 24.7916V29.1666H24.7923V24.7916C24.7923 20.9124 17.0194 18.9583 13.1257 18.9583Z" fill="#6E4ABC"/>
</svg>
